<?xml version="1.0" encoding="UTF-8" standalone="no"?>
<svg
   xmlns:dc="http://purl.org/dc/elements/1.1/"
   xmlns:cc="http://creativecommons.org/ns#"
   xmlns:rdf="http://www.w3.org/1999/02/22-rdf-syntax-ns#"
   xmlns:svg="http://www.w3.org/2000/svg"
   xmlns="http://www.w3.org/2000/svg"
   xmlns:sodipodi="http://sodipodi.sourceforge.net/DTD/sodipodi-0.dtd"
   xmlns:inkscape="http://www.inkscape.org/namespaces/inkscape"
   version="1.1"
   id="svg62"
   width="319.10434"
   height="319.10434"
   viewBox="0 0 319.10435 319.10434"
   sodipodi:docname="board.svg"
   inkscape:version="1.0.2 (e86c870879, 2021-01-15, custom)">
  <metadata
     id="metadata68">
    <rdf:RDF>
      <cc:Work
         rdf:about="">
        <dc:format>image/svg+xml</dc:format>
        <dc:type
           rdf:resource="http://purl.org/dc/dcmitype/StillImage" />
        <dc:title></dc:title>
      </cc:Work>
    </rdf:RDF>
  </metadata>
  <defs
     id="defs66" />
  <sodipodi:namedview
     pagecolor="#ffffff"
     bordercolor="#666666"
     borderopacity="1"
     objecttolerance="10"
     gridtolerance="10"
     guidetolerance="10"
     inkscape:pageopacity="0"
     inkscape:pageshadow="2"
     inkscape:window-width="3840"
     inkscape:window-height="2132"
     id="namedview64"
     showgrid="false"
     inkscape:zoom="6.0265164"
     inkscape:cx="184.13107"
     inkscape:cy="165.40194"
     inkscape:window-x="0"
     inkscape:window-y="0"
     inkscape:window-maximized="0"
     inkscape:current-layer="layer2"
     fit-margin-top="0"
     fit-margin-left="0"
     fit-margin-right="0"
     fit-margin-bottom="0"
     inkscape:document-rotation="0" />
  <g
     inkscape:groupmode="layer"
     id="layer5"
     inkscape:label="fields"
     style="display:inline"
     transform="translate(35.318291,3.6648407)">
    <circle
       style="fill:#101918;fill-opacity:1;stroke:none;stroke-width:0.304018;stroke-miterlimit:4;stroke-dasharray:none;stroke-opacity:1"
       id="path1613"
       cx="124.23388"
       cy="155.88733"
       r="159.55217" />
    <path
       style="fill:#101918;fill-opacity:1;stroke:none;stroke-width:0.012445;stroke-miterlimit:4;stroke-dasharray:none;stroke-opacity:1"
       d="m 117.61906,116.18983 c -2.51921,-15.21231 -4.58197,-27.686605 -4.58391,-27.720656 -0.004,-0.06969 0.10412,-0.09103 1.46913,-0.289989 5.42546,-0.790793 11.09889,-0.911236 16.59333,-0.352266 1.14084,0.116061 2.9218,0.340761 3.0504,0.384861 0.0823,0.02821 -0.0169,0.708961 -4.0491,27.79266 -2.27339,15.27006 -4.14219,27.7725 -4.1529,27.7832 -0.0107,0.0107 -0.17669,-0.002 -0.36887,-0.0291 -0.54265,-0.0754 -2.24181,-0.0631 -2.84547,0.0206 -0.27767,0.0385 -0.51102,0.0698 -0.51854,0.0697 -0.008,0 -2.07486,-12.44671 -4.59407,-27.65901 z"
       id="path1321" />
    <path
       style="fill:#101918;fill-opacity:1;stroke:none;stroke-width:0.012445;stroke-miterlimit:4;stroke-dasharray:none;stroke-opacity:1"
       d="m 132.36286,146.80777 c -0.61887,-0.55533 -1.65863,-1.29549 -2.243,-1.59669 -0.14748,-0.076 -0.26316,-0.15884 -0.25707,-0.18406 0.0158,-0.0653 25.0933,-50.099942 25.13226,-50.143804 0.0547,-0.06159 2.14348,1.050173 3.73047,1.98556 2.24832,1.325193 4.61533,2.908333 6.59585,4.411544 2.16202,1.64098 4.14468,3.33428 6.10106,5.21063 l 0.52155,0.50022 -19.67828,19.97422 c -10.82306,10.98583 -19.69148,19.97807 -19.7076,19.98276 -0.0161,0.005 -0.10398,-0.0585 -0.19524,-0.14038 z"
       id="path1323" />
    <path
       style="fill:#101918;fill-opacity:1;stroke:none;stroke-width:0.012445;stroke-miterlimit:4;stroke-dasharray:none;stroke-opacity:1"
       d="m 136.1823,153.54686 c -0.009,-0.0291 -0.066,-0.26755 -0.1271,-0.52993 -0.14544,-0.62414 -0.43032,-1.4746 -0.68556,-2.04662 -0.11249,-0.25209 -0.19422,-0.46875 -0.18163,-0.48147 0.0126,-0.0127 11.20795,-5.83006 24.87857,-12.92741 l 24.85566,-12.90428 0.32745,0.64595 c 2.5983,5.12572 4.68892,11.22267 5.85437,17.07335 0.33748,1.6942 0.39069,2.01593 0.33637,2.03401 -0.0257,0.009 -12.42334,2.06985 -27.55024,4.58065 -15.1269,2.51079 -27.54586,4.57488 -27.5977,4.58685 -0.0566,0.0131 -0.10062,6.4e-4 -0.11019,-0.0311 z"
       id="path1325" />
    <path
       style="fill:#101918;fill-opacity:1;stroke:none;stroke-width:0.012445;stroke-miterlimit:4;stroke-dasharray:none;stroke-opacity:1"
       d="m 95.755058,127.42967 -20.09255,-19.60724 0.660047,-0.63897 c 3.861334,-3.73805 7.292995,-6.4706 11.424973,-9.097444 1.664168,-1.057969 4.454445,-2.652387 4.517768,-2.581538 0.01833,0.02051 5.882472,11.217822 13.031424,24.882922 11.7941,22.54421 12.99109,24.84974 12.9225,24.89 -0.73622,0.43208 -1.45147,0.94736 -2.05748,1.48224 l -0.31413,0.27726 z"
       id="path1327" />
    <path
       style="fill:#101918;fill-opacity:1;stroke:none;stroke-width:0.012445;stroke-miterlimit:4;stroke-dasharray:none;stroke-opacity:1"
       d="m 84.47808,149.59403 c -15.179684,-2.31081 -27.610787,-4.21284 -27.624673,-4.22673 -0.03232,-0.0323 0.03324,-0.46375 0.259062,-1.70486 1.086976,-5.97399 2.901084,-11.61043 5.538483,-17.20811 0.310062,-0.65808 0.401535,-0.81849 0.458294,-0.80365 0.039,0.0102 11.344809,5.61642 25.124018,12.45827 l 25.053106,12.43972 -0.13178,0.29038 c -0.36173,0.79712 -0.77329,2.10575 -0.87085,2.76902 -0.0245,0.1668 -0.0426,0.19631 -0.11761,0.19224 -0.0487,-0.003 -12.508367,-1.89546 -27.68805,-4.20628 z"
       id="path1329" />
    <path
       style="fill:#101918;fill-opacity:1;stroke:none;stroke-width:0.02489;stroke-miterlimit:4;stroke-dasharray:none;stroke-opacity:1"
       d="m 63.2178,186.45902 c -2.278997,-4.67396 -3.932275,-9.17571 -5.148696,-14.01951 -0.374439,-1.49101 -1.080344,-4.90096 -1.025758,-4.95503 0.01729,-0.0171 12.370658,-2.10675 27.451925,-4.64361 15.081267,-2.53686 27.495939,-4.62943 27.588159,-4.65016 0.14927,-0.0335 0.188,0.0452 0.35281,0.71755 0.10182,0.41538 0.33539,1.12977 0.51904,1.58753 0.18366,0.45775 0.30491,0.85869 0.26945,0.89097 -0.0986,0.0897 -49.710052,25.38339 -49.787465,25.38339 -0.03727,0 -0.136029,-0.14001 -0.219465,-0.31113 z"
       id="path1331" />
    <path
       style="fill:#101918;fill-opacity:1;stroke:none;stroke-width:0.02489;stroke-miterlimit:4;stroke-dasharray:none;stroke-opacity:1"
       d="m 91.70603,215.98205 c -5.13741,-2.7829 -10.308547,-6.55281 -14.424188,-10.51565 l -1.032411,-0.99408 19.731658,-19.88565 c 10.852411,-10.93711 19.748721,-19.88566 19.769581,-19.88566 0.0209,0 0.24925,0.18956 0.50754,0.42125 0.38294,0.3435 1.25641,0.96616 2.02777,1.4455 0.1147,0.0713 -1.65401,3.60114 -12.55453,25.05551 -6.978421,13.73489 -12.716617,24.98196 -12.751549,24.99348 -0.03493,0.0115 -0.608174,-0.2741 -1.273871,-0.6347 z"
       id="path1333" />
    <path
       style="fill:#101918;fill-opacity:1;stroke:none;stroke-width:0.02489;stroke-miterlimit:4;stroke-dasharray:none;stroke-opacity:1"
       d="m 120.58577,224.18002 c -1.85594,-0.10285 -6.51446,-0.58808 -6.61545,-0.68907 -0.0119,-0.0119 1.95705,-12.48223 4.37547,-27.71183 2.41841,-15.2296 4.39714,-27.69643 4.39717,-27.70407 4e-5,-0.008 0.71965,-0.0144 1.59915,-0.015 l 1.5991,-10e-4 4.65474,27.629 c 2.70124,16.03368 4.62223,27.64965 4.57728,27.67821 -0.12376,0.0786 -2.45329,0.39066 -4.25811,0.57035 -3.21742,0.32035 -7.2339,0.41502 -10.32935,0.24349 z"
       id="path1335" />
    <path
       style="fill:#101918;fill-opacity:1;stroke:none;stroke-width:0.02489;stroke-miterlimit:4;stroke-dasharray:none;stroke-opacity:1"
       d="m 143.03061,191.49524 c -7.06219,-13.69171 -12.82659,-24.9069 -12.80978,-24.92265 0.0168,-0.0157 0.36658,-0.25287 0.77726,-0.52694 0.41069,-0.27407 0.98978,-0.7212 1.28688,-0.99361 l 0.54018,-0.49529 18.41771,18.24458 c 10.12973,10.03452 19.08973,18.91769 19.9111,19.74037 l 1.4934,1.4958 -1.1691,1.13943 c -3.52674,3.43723 -7.85297,6.75971 -12.18853,9.36061 -1.44687,0.86797 -3.21988,1.85171 -3.33739,1.85171 -0.0448,0 -5.85954,-11.20231 -12.92173,-24.89401 z"
       id="path1337" />
    <path
       style="fill:#101918;fill-opacity:1;stroke:none;stroke-width:0.02489;stroke-miterlimit:4;stroke-dasharray:none;stroke-opacity:1"
       d="m 160.39246,173.48334 -25.01251,-12.60685 0.27066,-0.72193 c 0.14887,-0.39706 0.35767,-1.12479 0.46401,-1.61716 0.17435,-0.80729 0.20964,-0.89149 0.35927,-0.85718 0.0913,0.0209 12.54529,1.9337 27.6756,4.2506 l 27.50967,4.21255 -0.11598,0.75148 c -0.3763,2.43801 -1.24671,6.17763 -2.05772,8.84073 -1.02541,3.36713 -2.36431,6.82853 -3.71393,9.60147 l -0.36656,0.75313 z"
       id="path1339" />
    <path
       style="fill:#e8d0b6;fill-opacity:1;stroke:none;stroke-width:0.02489;stroke-miterlimit:4;stroke-dasharray:none;stroke-opacity:1"
       d="M 105.61843,120.21786 C 98.475236,106.56522 92.630805,95.371189 92.630805,95.342224 c 0,-0.07483 2.472739,-1.303731 3.899434,-1.937946 3.632221,-1.614649 7.396381,-2.911574 11.241981,-3.873375 1.42695,-0.356886 4.85716,-1.077655 4.89164,-1.027848 0.009,0.01306 2.06105,12.381635 4.56003,27.485715 2.49897,15.10408 4.56311,27.56284 4.58696,27.68614 0.0375,0.19399 0.0114,0.23106 -0.19436,0.27531 -0.52386,0.11268 -2.09118,0.64446 -2.53672,0.8607 l -0.47371,0.22991 z"
       id="path1363" />
    <path
       style="fill:#e8d0b6;fill-opacity:1;stroke:none;stroke-width:0.02489;stroke-miterlimit:4;stroke-dasharray:none;stroke-opacity:1"
       d="m 129.20062,144.72813 c -0.42338,-0.21794 -1.69042,-0.63614 -2.32266,-0.76662 -0.50338,-0.10389 -0.52061,-0.11588 -0.50372,-0.35065 0.0425,-0.59135 8.1881,-55.174503 8.24329,-55.238003 0.0718,-0.08257 1.19709,0.09349 3.18863,0.498895 5.36076,1.091245 10.74587,2.894008 15.71203,5.259884 0.59879,0.285266 1.08872,0.556351 1.08872,0.602411 0,0.06 -25.00804,50.042413 -25.08694,50.140103 -0.006,0.007 -0.14947,-0.0586 -0.31935,-0.14602 z"
       id="62" />
    <path
       style="fill:#e8d0b6;fill-opacity:1;stroke:none;stroke-width:0.02489;stroke-miterlimit:4;stroke-dasharray:none;stroke-opacity:1"
       d="m 134.68149,149.60717 c -0.358,-0.61308 -0.91691,-1.36896 -1.4536,-1.96589 l -0.38494,-0.42815 1.12152,-1.1345 c 0.61684,-0.62397 8.65478,-8.78817 17.86209,-18.14266 9.20731,-9.35449 17.55947,-17.82954 18.56035,-18.83344 l 1.81979,-1.82526 1.03132,1.06419 c 4.15932,4.29193 7.98729,9.50927 10.86345,14.80635 0.35402,0.65199 0.62953,1.19665 0.61226,1.21035 -0.0685,0.0543 -49.48775,25.68338 -49.60399,25.72486 -0.0864,0.0308 -0.21736,-0.1147 -0.42825,-0.47585 z"
       id="path1367" />
    <path
       style="fill:#e8d0b6;fill-opacity:1;stroke:none;stroke-width:0.02489;stroke-miterlimit:4;stroke-dasharray:none;stroke-opacity:1"
       d="m 163.81621,161.49653 c -15.08127,-2.32027 -27.43153,-4.22164 -27.44503,-4.22526 -0.0135,-0.004 -6.6e-4,-0.3706 0.0285,-0.81551 0.0292,-0.44491 0.0138,-1.18076 -0.0341,-1.63522 -0.048,-0.45446 -0.0733,-0.84023 -0.0562,-0.85727 0.017,-0.017 12.43866,-2.09207 27.60362,-4.6112 l 27.57264,-4.58023 0.058,0.20086 c 0.0928,0.32148 0.4688,3.25319 0.60282,4.70054 0.44989,4.85837 0.35452,10.08665 -0.27242,14.934 l -0.1395,1.07856 -0.2489,0.0147 c -0.13689,0.008 -12.58811,-1.8837 -27.66938,-4.20398 z"
       id="path1369" />
    <path
       style="fill:#e8d0b6;fill-opacity:1;stroke:none;stroke-width:0.02489;stroke-miterlimit:4;stroke-dasharray:none;stroke-opacity:1"
       d="m 154.98026,185.96519 c -9.85644,-9.76562 -18.80501,-18.64086 -19.88571,-19.72275 l -1.96491,-1.96707 0.53976,-0.66373 c 0.29687,-0.36506 0.74921,-1.01842 1.0052,-1.45192 0.25598,-0.4335 0.49006,-0.81776 0.52016,-0.85391 0.0391,-0.0469 49.80867,24.95595 50.01129,25.12431 0.0715,0.0594 -1.48998,2.96146 -2.49841,4.64349 -1.98163,3.30527 -4.31887,6.54145 -6.89084,9.54116 -0.81556,0.95119 -2.80755,3.11172 -2.86617,3.10868 -0.0273,-0.001 -8.11393,-7.99264 -17.97037,-17.75826 z"
       id="path1371" />
    <path
       style="fill:#e8d0b6;fill-opacity:1;stroke:none;stroke-width:0.02489;stroke-miterlimit:4;stroke-dasharray:none;stroke-opacity:1"
       d="m 135.60754,223.22932 c 0,-0.0601 -9.07495,-54.02035 -9.2607,-55.06475 -0.0453,-0.25497 -0.0396,-0.26009 0.35526,-0.31918 0.541,-0.0809 1.57871,-0.41122 2.42101,-0.77056 0.57107,-0.24362 0.70518,-0.27484 0.7664,-0.17843 0.11888,0.18721 25.53226,49.46669 25.59353,49.62881 0.0466,0.12344 -0.17616,0.25824 -1.40166,0.84801 -5.477,2.63578 -10.90122,4.46056 -16.66537,5.60644 -1.8078,0.35938 -1.80847,0.35947 -1.80847,0.24966 z"
       id="path1373" />
    <path
       style="fill:#e8d0b6;fill-opacity:1;stroke:none;stroke-width:0.02489;stroke-miterlimit:4;stroke-dasharray:none;stroke-opacity:1"
       d="m 111.63017,223.09595 c -6.06016,-1.17044 -11.4804,-2.96287 -17.115151,-5.65982 -0.886998,-0.42455 -1.133227,-0.57694 -1.095819,-0.67819 0.04906,-0.1328 22.2051,-43.79106 24.24408,-47.77271 l 1.1145,-2.17638 0.30783,0.15704 c 0.4794,0.24457 1.93093,0.73085 2.58671,0.86658 0.32619,0.0675 0.615,0.14468 0.64181,0.17148 0.0268,0.0268 -1.92744,12.49935 -4.34275,27.71675 l -4.39149,27.66802 -0.2489,-0.006 c -0.1369,-0.003 -0.90226,-0.13237 -1.70082,-0.2866 z"
       id="path1375" />
    <path
       style="fill:#e8d0b6;fill-opacity:1;stroke:none;stroke-width:0.02489;stroke-miterlimit:4;stroke-dasharray:none;stroke-opacity:1"
       d="m 74.778977,202.95858 c -2.053144,-2.18629 -3.380571,-3.7626 -5.072375,-6.02342 -2.163963,-2.89178 -4.51573,-6.61244 -5.809102,-9.1904 l -0.296481,-0.59095 24.947952,-12.7252 24.947949,-12.72521 0.45632,0.72475 c 0.25097,0.39861 0.69419,1.00933 0.98492,1.35716 l 0.5286,0.63242 -4.51648,4.53347 c -2.48406,2.49341 -11.359043,11.43111 -19.722184,19.86156 -8.363141,8.43045 -15.235666,15.3281 -15.272278,15.3281 -0.03661,0 -0.566189,-0.53203 -1.176841,-1.18228 z"
       id="path1377" />
    <path
       style="fill:#e8d0b6;fill-opacity:1;stroke:none;stroke-width:0.02489;stroke-miterlimit:4;stroke-dasharray:none;stroke-opacity:1"
       d="m 56.928263,166.86808 c -0.100163,-0.41679 -0.396991,-2.69115 -0.549522,-4.21056 -0.497331,-4.95407 -0.426613,-10.44099 0.197611,-15.33238 0.106578,-0.83514 0.207403,-1.53177 0.224056,-1.54806 0.01665,-0.0163 12.464419,1.86118 27.661702,4.17218 l 27.63142,4.20182 -0.004,1.57754 c -0.002,0.86765 0.0246,1.67768 0.0589,1.80007 0.0488,0.17416 0.0308,0.23198 -0.083,0.26607 -0.16995,0.0509 -54.870807,9.25999 -55.003397,9.25999 -0.04917,0 -0.109586,-0.084 -0.13426,-0.18667 z"
       id="path1379" />
    <path
       style="fill:#e8d0b6;fill-opacity:1;stroke:none;stroke-width:0.02489;stroke-miterlimit:4;stroke-dasharray:none;stroke-opacity:1"
       d="M 88.36729,137.76806 C 74.591622,130.9256 63.303108,125.30971 63.281701,125.2883 c -0.05957,-0.0596 1.476989,-2.89924 2.450627,-4.52895 2.460735,-4.11885 5.314088,-7.92157 8.644874,-11.5212 0.558436,-0.60351 1.043289,-1.08626 1.077449,-1.07277 0.110451,0.0436 40.074959,39.07414 40.074959,39.13841 0,0.0342 -0.0798,0.13327 -0.17738,0.2202 -0.31022,0.27641 -1.30869,1.61136 -1.61534,2.15971 -0.16265,0.29085 -0.30185,0.528 -0.30933,0.52701 -0.007,-0.001 -11.2846,-5.60019 -25.06027,-12.44265 z"
       id="path1381" />
    <path
       style="fill:#e8d0b6;fill-opacity:1;stroke:none;stroke-width:0.02489;stroke-miterlimit:4;stroke-dasharray:none;stroke-opacity:1"
       d="m 156.63959,87.567194 c -4.39455,-2.164811 -10.39598,-4.242408 -15.67711,-5.42715 -1.79277,-0.402183 -4.73365,-0.955795 -5.07733,-0.955795 -0.1331,0 -0.19464,-0.04787 -0.19464,-0.151395 0,-0.137943 5.26775,-35.648887 5.48261,-36.95931 l 0.0924,-0.563887 0.38594,0.05448 c 1.10267,0.15565 4.35247,0.757598 6.06916,1.124165 8.88544,1.897317 17.48506,4.841673 25.74803,8.815669 0.81415,0.391557 1.46751,0.744618 1.45191,0.78458 -0.21263,0.544896 -16.97692,33.860136 -17.03652,33.856246 -0.0456,-0.003 -0.60565,-0.262899 -1.2445,-0.577602 z"
       id="22"
       onclick="top.on_field_selected(evt)" />
    <path
       style="fill:#e8d0b6;fill-opacity:1;stroke:none;stroke-width:0.02489;stroke-miterlimit:4;stroke-dasharray:none;stroke-opacity:1"
       d="m 190.38218,119.28115 c -3.27743,-5.90028 -7.23201,-11.2487 -11.83482,-16.00618 l -1.19937,-1.23966 13.28996,-13.493813 13.28996,-13.49381 0.40203,0.392606 c 0.64154,0.626493 3.60923,3.787701 4.53557,4.831323 5.02295,5.658872 9.65707,12.080532 13.43417,18.616209 0.89929,1.556075 2.49703,4.496335 2.49703,4.595185 0,0.0497 -32.9969,17.24456 -33.43838,17.42494 -0.0325,0.0133 -0.47177,-0.71878 -0.97615,-1.6268 z"
       id="path1385" />
    <path
       style="fill:#101918;fill-opacity:1;stroke:none;stroke-width:0.02489;stroke-miterlimit:4;stroke-dasharray:none;stroke-opacity:1"
       d="m 198.70335,142.80774 c -0.11783,-0.73643 -0.55947,-2.89032 -0.83783,-4.0861 -1.29467,-5.56154 -3.42566,-11.49215 -5.90375,-16.43035 l -0.5011,-0.99854 16.73729,-8.68782 c 9.20551,-4.7783 16.76347,-8.68781 16.79548,-8.68781 0.0766,0 1.48405,2.85853 2.40044,4.87543 3.79227,8.34649 6.67961,17.55123 8.31905,26.52085 0.16458,0.90044 0.28654,1.64879 0.27102,1.663 -0.0269,0.0247 -37.0553,6.18578 -37.16925,6.18455 -0.0302,-3.3e-4 -0.0803,-0.15927 -0.11135,-0.35321 z"
       id="path1387" />
    <path
       style="fill:#101918;fill-opacity:1;stroke:none;stroke-width:0.02489;stroke-miterlimit:4;stroke-dasharray:none;stroke-opacity:1"
       d="m 210.07013,198.53607 c -8.62439,-4.34687 -16.19098,-8.16909 -16.81466,-8.49382 l -1.13396,-0.59044 0.58448,-1.26327 c 2.96732,-6.41343 5.02998,-13.05723 6.12338,-19.72335 0.10105,-0.61603 0.19708,-1.13458 0.21342,-1.15235 0.0163,-0.0178 8.40583,1.25123 18.64333,2.81998 l 18.61362,2.85227 -0.11098,0.70611 c -1.69346,10.77469 -5.1555,21.85027 -9.87079,31.57822 l -0.56714,1.17004 z"
       id="path1389" />
    <path
       style="fill:#e8d0b6;fill-opacity:1;stroke:none;stroke-width:0.02489;stroke-miterlimit:4;stroke-dasharray:none;stroke-opacity:1"
       d="M 80.962928,73.103836 C 76.422577,64.425895 72.45698,56.845071 72.150491,56.257561 l -0.557254,-1.068201 2.50697,-1.232303 c 8.928429,-4.388775 17.838138,-7.456678 27.337873,-9.413319 1.86092,-0.383289 3.76408,-0.725915 3.80499,-0.68501 0.0182,0.01816 1.41376,8.373395 3.10135,18.567193 1.68758,10.193797 3.08802,18.629094 3.11209,18.745107 0.0435,0.209829 0.0382,0.211942 -1.01686,0.404353 -6.54123,1.192885 -13.669664,3.58719 -19.747904,6.632945 -0.740978,0.371299 -1.375673,0.674749 -1.410433,0.674335 -0.03476,-4.14e-4 -3.778034,-7.100885 -8.318385,-15.778825 z"
       id="path1391" />
    <path
       style="fill:#e8d0b6;fill-opacity:1;stroke:none;stroke-width:0.02489;stroke-miterlimit:4;stroke-dasharray:none;stroke-opacity:1"
       d="m 39.784757,113.65022 c -9.300731,-4.62365 -16.930634,-8.42685 -16.955339,-8.45156 -0.02471,-0.0247 0.319021,-0.74694 0.763838,-1.60497 5.012084,-9.66809 11.41646,-18.636958 18.841345,-26.385952 l 0.654042,-0.682593 13.56505,13.247976 c 7.460778,7.286386 13.574127,13.268469 13.58522,13.293529 0.01109,0.0251 -0.43115,0.5309 -0.982761,1.12411 -3.901365,4.1956 -7.276976,8.72232 -10.05369,13.48209 -0.667263,1.1438 -1.62079,2.87659 -2.01634,3.66418 -0.202488,0.40318 -0.395787,0.73008 -0.429553,0.72644 -0.03377,-0.004 -7.671081,-3.7896 -16.971812,-8.41325 z"
       id="path1393" />
    <path
       style="fill:#e8d0b6;fill-opacity:1;stroke:none;stroke-width:0.02489;stroke-miterlimit:4;stroke-dasharray:none;stroke-opacity:1"
       d="m 12.392081,174.40131 c -0.07243,-0.31057 -0.439524,-2.83891 -0.617354,-4.25204 -1.225674,-9.73985 -1.184039,-19.84775 0.121296,-29.44684 0.112167,-0.82485 0.204082,-1.5464 0.204254,-1.60344 1.73e-4,-0.057 0.06565,-0.10419 0.145506,-0.10477 0.140662,-0.001 37.38843,5.64683 37.405924,5.67184 0.0048,0.007 -0.07661,0.64038 -0.180864,1.40786 -0.444544,3.27242 -0.624205,6.16006 -0.622953,10.0125 0.0013,3.97563 0.202274,6.91791 0.724266,10.60295 0.118273,0.83495 0.191564,1.54158 0.16287,1.57027 -0.03491,0.0349 -36.606369,6.24056 -37.280246,6.32592 -0.01054,0.001 -0.03875,-0.0816 -0.0627,-0.18425 z"
       id="path1395" />
    <path
       style="fill:#e8d0b6;fill-opacity:1;stroke:none;stroke-width:0.02489;stroke-miterlimit:4;stroke-dasharray:none;stroke-opacity:1"
       d="M 42.78778,234.92111 C 36.473752,228.43083 30.630896,220.6618 26.021942,212.6282 c -1.067873,-1.86134 -2.639423,-4.78473 -2.634969,-4.90155 0.0023,-0.0611 15.191295,-7.83659 31.264038,-16.00464 1.346174,-0.68412 2.459543,-1.20279 2.475985,-1.15347 0.01643,0.0493 0.425121,0.81404 0.908197,1.69942 3.200518,5.86589 6.912744,10.97801 11.55078,15.90661 l 1.196133,1.27107 -3.769394,3.7899 c -2.073167,2.08444 -8.057471,8.11142 -13.298453,13.39329 -5.240981,5.28187 -9.55649,9.60339 -9.590016,9.60339 -0.03353,0 -0.634935,-0.59 -1.336463,-1.31111 z"
       id="path1397" />
    <path
       style="fill:#e8d0b6;fill-opacity:1;stroke:none;stroke-width:0.02489;stroke-miterlimit:4;stroke-dasharray:none;stroke-opacity:1"
       d="m 104.64991,267.84352 c -10.566292,-1.87159 -21.395466,-5.41594 -30.346625,-9.93235 l -1.446526,-0.72986 8.19599,-16.13702 c 4.507795,-8.87536 8.367845,-16.46127 8.577888,-16.85759 l 0.381899,-0.72057 1.067521,0.52923 c 4.828919,2.39394 10.031443,4.28555 15.390743,5.596 1.40775,0.34422 4.72846,1.02217 5.50773,1.12444 0.39739,0.0522 0.43824,0.0762 0.40173,0.23602 -0.0224,0.0979 -1.35598,8.48499 -2.96361,18.63804 -1.60762,10.15304 -2.94578,18.48307 -2.97369,18.51117 -0.0279,0.0281 -0.83478,-0.0878 -1.79305,-0.25751 z"
       id="path1399" />
    <path
       style="fill:#e8d0b6;fill-opacity:1;stroke:none;stroke-width:0.02489;stroke-miterlimit:4;stroke-dasharray:none;stroke-opacity:1"
       d="m 140.04864,249.52756 c -1.70379,-10.11878 -3.11658,-18.49544 -3.13953,-18.61479 -0.0413,-0.21495 -0.034,-0.21836 0.77474,-0.36046 6.49394,-1.14096 13.41345,-3.39946 19.574,-6.38888 l 1.74938,-0.84889 8.62146,16.71019 c 4.7418,9.19061 8.63136,16.73767 8.64346,16.77124 0.0121,0.0336 -0.71593,0.42923 -1.61785,0.87923 -9.38944,4.68476 -19.21436,7.98228 -29.66395,9.95606 -0.85675,0.16183 -1.62212,0.2942 -1.70081,0.29416 -0.12573,-7e-5 -0.51902,-2.23273 -3.2409,-18.39786 z"
       id="path1401" />
    <path
       style="fill:#e8d0b6;fill-opacity:1;stroke:none;stroke-width:0.02489;stroke-miterlimit:4;stroke-dasharray:none;stroke-opacity:1"
       d="m 197.5311,228.12134 c -4.12966,-4.09205 -10.15742,-10.06517 -13.395,-13.27362 l -5.88652,-5.83353 0.75017,-0.76496 c 4.53129,-4.6206 9.46014,-11.54852 12.4233,-17.462 0.25724,-0.51336 0.49264,-0.93338 0.52313,-0.93338 0.0559,0 23.38406,11.73971 30.0373,15.11602 l 3.58625,1.81992 -0.50596,1.01097 c -3.65718,7.30753 -9.11207,15.44832 -14.80999,22.10219 -1.28317,1.49845 -3.91098,4.3811 -4.68877,5.14346 l -0.52542,0.51501 z"
       id="path1403" />
    <path
       style="fill:#e8d0b6;fill-opacity:1;stroke:none;stroke-width:0.02489;stroke-miterlimit:4;stroke-dasharray:none;stroke-opacity:1"
       d="m 217.63616,169.74758 c -10.13812,-1.55871 -18.45686,-2.85816 -18.48609,-2.88767 -0.0292,-0.0295 0.0239,-0.66421 0.11794,-1.41044 0.4461,-3.53807 0.62723,-6.9975 0.55974,-10.69052 -0.0676,-3.70038 -0.24606,-6.00933 -0.72707,-9.40817 -0.13496,-0.95357 -0.2266,-1.75253 -0.20366,-1.77547 0.0676,-0.0676 37.17036,-6.21641 37.19019,-6.16333 0.0488,0.13066 0.62185,4.29173 0.76648,5.5657 0.50344,4.43463 0.70013,8.05422 0.70107,12.90132 0.001,5.50862 -0.27766,9.8797 -0.95224,14.934 -0.23464,1.75806 -0.24065,1.78495 -0.39744,1.77619 -0.0748,-0.004 -8.43079,-1.2829 -18.56892,-2.84161 z"
       id="path1405" />
    <path
       style="fill:#101918;fill-opacity:1;stroke:none;stroke-width:0.02489;stroke-miterlimit:4;stroke-dasharray:none;stroke-opacity:1"
       d="m 175.59922,254.63592 c -0.57207,-1.10978 -4.45851,-8.64474 -8.63653,-16.74436 -6.9639,-13.50038 -7.58432,-14.73557 -7.45114,-14.83447 0.0799,-0.0593 0.53728,-0.31767 1.01642,-0.57408 1.34395,-0.71922 4.0185,-2.33751 5.54714,-3.35641 3.90948,-2.60582 6.99693,-5.09724 10.91658,-8.80913 l 1.0383,-0.98326 13.36544,13.25537 13.36544,13.25537 -1.10514,1.11198 c -6.13406,6.17202 -14.27741,12.41282 -22.35557,17.13261 -1.49231,0.8719 -4.27344,2.41551 -4.52817,2.51326 -0.10502,0.0403 -0.34934,-0.36947 -1.17277,-1.96688 z"
       id="path1407" />
    <path
       style="fill:#101918;fill-opacity:1;stroke:none;stroke-width:0.02489;stroke-miterlimit:4;stroke-dasharray:none;stroke-opacity:1"
       d="m 121.57511,269.5343 c -4.26369,-0.11621 -8.44699,-0.45814 -12.76306,-1.04322 l -1.9774,-0.26805 0.04,-0.211 c 0.022,-0.11604 1.35644,-8.51803 2.96544,-18.67107 1.60901,-10.15305 2.93039,-18.46783 2.9364,-18.4773 0.006,-0.009 0.3641,0.0357 0.79574,0.10047 6.70553,1.00554 13.89653,1.02931 20.98718,0.0694 0.88982,-0.12046 1.69188,-0.22275 1.78236,-0.22731 0.15479,-0.008 0.34673,1.07279 3.24814,18.28587 1.696,10.06178 3.10607,18.43163 3.1335,18.59966 0.0401,0.24571 0.0214,0.31434 -0.0954,0.35065 -0.66115,0.20545 -6.80419,0.95104 -9.60348,1.16559 -3.42337,0.26239 -8.49369,0.4069 -11.4494,0.32634 z"
       id="path1409" />
    <path
       style="fill:#101918;fill-opacity:1;stroke:none;stroke-width:0.02489;stroke-miterlimit:4;stroke-dasharray:none;stroke-opacity:1"
       d="m 71.587694,256.55107 c -9.83641,-5.24798 -18.437628,-11.47012 -25.921287,-18.75151 l -1.245718,-1.21205 4.10456,-4.15584 c 2.257509,-2.28571 8.248746,-8.33103 13.313861,-13.43405 l 9.209301,-9.27822 1.2445,1.17392 c 4.957464,4.67633 9.953294,8.33027 15.80347,11.55862 0.751998,0.41498 1.396027,0.75451 1.431175,0.75451 0.03515,0 0.06391,0.0417 0.06391,0.0926 0,0.16691 -17.047508,33.67184 -17.132618,33.67221 -0.04563,1.6e-4 -0.437649,-0.18888 -0.87115,-0.42016 z"
       id="path1411" />
    <path
       style="fill:#101918;fill-opacity:1;stroke:none;stroke-width:0.02489;stroke-miterlimit:4;stroke-dasharray:none;stroke-opacity:1"
       d="m 22.283714,205.5546 c -3.895967,-8.00676 -6.89764,-16.70301 -8.807112,-25.51538 -0.501981,-2.31668 -1.011505,-5.01661 -0.955716,-5.06427 0.08731,-0.0746 37.250777,-6.28479 37.327187,-6.23757 0.04693,0.029 0.08532,0.1223 0.08532,0.20733 0,0.25549 0.650406,3.43168 1.000187,4.88432 1.210312,5.02642 3.120643,10.39795 5.312827,14.93879 0.361507,0.74882 0.647705,1.36906 0.635994,1.37831 -0.01171,0.009 -6.666921,3.40491 -14.789358,7.54592 -8.122438,4.141 -15.704866,8.00999 -16.849842,8.59773 l -2.081774,1.06864 z"
       id="path1413" />
    <path
       style="fill:#101918;fill-opacity:1;stroke:none;stroke-width:0.02489;stroke-miterlimit:4;stroke-dasharray:none;stroke-opacity:1"
       d="m 30.942712,141.43617 c -10.285164,-1.5687 -18.710197,-2.86231 -18.722295,-2.87469 -0.0121,-0.0124 0.101608,-0.75055 0.25268,-1.64036 1.563102,-9.2067 4.134439,-17.86263 7.862114,-26.46637 0.980629,-2.26336 2.232992,-4.90445 2.312488,-4.87677 0.03667,0.0128 7.699203,3.81202 17.027849,8.44277 l 16.961175,8.41955 -0.230946,0.45788 c -1.091672,2.16438 -2.699396,6.12186 -3.689596,9.08209 -1.20111,3.59074 -2.443171,8.59841 -2.877136,11.59986 -0.05765,0.39876 -0.125349,0.72124 -0.150431,0.71662 -0.02508,-0.005 -8.460739,-1.29188 -18.745902,-2.86058 z"
       id="path1415" />
    <path
       style="fill:#101918;fill-opacity:1;stroke:none;stroke-width:0.02489;stroke-miterlimit:4;stroke-dasharray:none;stroke-opacity:1"
       d="M 58.437477,90.979477 C 51.775253,84.47739 45.655615,78.505646 44.83828,77.708934 l -1.486062,-1.448567 0.988262,-0.996029 c 5.244748,-5.285961 11.810079,-10.584011 18.468593,-14.90367 2.410673,-1.563906 8.149327,-4.915316 8.410467,-4.911765 0.05845,7.94e-4 13.319018,25.239679 17.136591,32.616126 l 0.548452,1.059738 -1.076685,0.590577 c -5.671516,3.110902 -11.30049,7.29723 -16.224092,12.066026 l -1.053195,1.02008 z"
       id="path1417" />
    <path
       style="fill:#101918;fill-opacity:1;stroke:none;stroke-width:0.02489;stroke-miterlimit:4;stroke-dasharray:none;stroke-opacity:1"
       d="m 108.75981,62.588074 c -1.70837,-10.312445 -3.08395,-18.772086 -3.05683,-18.799201 0.12479,-0.12479 4.32306,-0.706253 7.16063,-0.991753 4.3936,-0.442057 5.69589,-0.499258 11.36644,-0.499258 5.67118,0 6.97571,0.05732 11.36643,0.499403 1.85512,0.186785 5.19552,0.606786 5.25178,0.660325 0.0212,0.02016 -5.54422,37.564104 -5.57332,37.59724 -0.006,0.0065 -0.70102,-0.07524 -1.54521,-0.181578 -6.0321,-0.759843 -12.10519,-0.784832 -18.21068,-0.07493 -1.04403,0.121392 -3.01855,0.405461 -3.44466,0.495572 l -0.20845,0.04408 z"
       id="path1419" />
    <path
       style="fill:#101918;fill-opacity:1;stroke:none;stroke-width:0.02489;stroke-miterlimit:4;stroke-dasharray:none;stroke-opacity:1"
       d="m 176.14247,100.91255 c -4.62496,-4.458917 -10.71239,-8.817944 -16.686,-11.948344 l -1.15903,-0.607379 8.4118,-16.8071 c 4.62649,-9.243904 8.46439,-16.878432 8.52867,-16.965617 0.11199,-0.151901 0.16847,-0.131488 1.35274,0.488895 9.52906,4.991833 18.60639,11.525773 26.12226,18.803039 l 0.90963,0.880748 -1.03378,1.080372 c -1.67914,1.754819 -25.50015,25.906406 -25.54805,25.902586 -0.0241,-0.002 -0.42833,-0.37416 -0.89824,-0.8272 z"
       id="s18_big" />
    <path
       style="fill:#028049;fill-opacity:1;stroke:none;stroke-width:0.04978;stroke-miterlimit:4;stroke-dasharray:none;stroke-opacity:1"
       d="m 90.95367,92.111399 -1.446588,-2.79299 2.608122,-1.254618 c 5.583943,-2.686115 11.240566,-4.582014 17.456306,-5.850732 1.04796,-0.213903 1.91656,-0.375187 1.93023,-0.358407 0.0137,0.01678 0.22149,1.225227 0.46184,2.685441 0.24036,1.460213 0.47678,2.849844 0.52539,3.088069 0.0848,0.415521 0.0459,0.44129 -0.9568,0.63365 -5.76898,1.106767 -12.078475,3.195231 -17.095426,5.658643 -1.109449,0.544759 -2.021524,0.989001 -2.026833,0.987203 -0.0053,-0.0018 -0.660617,-1.260114 -1.456241,-2.796259 z"
       id="path1527" />
    <path
       style="fill:#028049;fill-opacity:1;stroke:none;stroke-width:0.04978;stroke-miterlimit:4;stroke-dasharray:none;stroke-opacity:1"
       d="m 153.79808,93.801635 c -4.17731,-2.172065 -12.55743,-4.852957 -17.85181,-5.710992 l -1.25599,-0.203552 0.4575,-3.059797 c 0.25162,-1.682887 0.49637,-3.098665 0.54387,-3.146171 0.13704,-0.137039 3.79841,0.563223 6.75467,1.291877 4.57196,1.126888 10.56677,3.278847 14.12302,5.069741 l 1.12549,0.566793 -1.41125,2.818829 c -0.7762,1.550357 -1.46685,2.815353 -1.53479,2.811104 -0.0679,-0.0042 -0.49576,-0.201274 -0.95071,-0.437832 z"
       id="42" />
    <path
       style="fill:#028049;fill-opacity:1;stroke:none;stroke-width:0.04978;stroke-miterlimit:4;stroke-dasharray:none;stroke-opacity:1"
       d="m 184.32278,122.66752 c -2.68728,-4.97885 -6.64896,-10.3778 -10.5892,-14.43089 l -1.16023,-1.19346 2.01787,-2.1454 c 1.10983,-1.17997 2.12101,-2.231 2.24706,-2.33561 0.18331,-0.15213 0.50498,0.10097 1.6073,1.2647 4.69096,4.95231 8.5441,10.23961 11.91091,16.34424 l 0.52445,0.95093 -0.70484,0.35462 c -0.38766,0.19504 -1.68641,0.87041 -2.88611,1.50082 l -2.18127,1.1462 z"
       id="path1531" />
    <path
       style="fill:#028049;fill-opacity:1;stroke:none;stroke-width:0.04978;stroke-miterlimit:4;stroke-dasharray:none;stroke-opacity:1"
       d="m 195.15919,166.27504 c -1.52607,-0.24522 -2.82421,-0.49538 -2.88474,-0.55591 -0.0605,-0.0605 -0.0271,-0.76579 0.0743,-1.56724 0.70916,-5.60437 0.63347,-12.33796 -0.20315,-18.07142 l -0.19675,-1.34835 3.14475,-0.52378 c 1.72961,-0.28807 3.19983,-0.46535 3.26716,-0.39394 0.15469,0.16407 0.58457,3.56785 0.8337,6.60123 0.24377,2.9682 0.0936,11.39888 -0.24974,14.02137 -0.13741,1.04953 -0.25306,2.00157 -0.25701,2.11565 -0.009,0.26952 -0.23331,0.2519 -3.52856,-0.27761 z"
       id="path1533" />
    <path
       style="fill:#028049;fill-opacity:1;stroke:none;stroke-width:0.04978;stroke-miterlimit:4;stroke-dasharray:none;stroke-opacity:1"
       d="m 175.58402,206.29368 -2.26747,-2.28158 1.00863,-1.07857 c 3.85064,-4.11765 7.78158,-9.61141 10.2777,-14.36382 l 0.9917,-1.8881 2.85097,1.42433 c 1.56804,0.78338 2.88449,1.45566 2.92545,1.49395 0.3032,0.28351 -3.62111,6.92321 -6.2253,10.53283 -2.15886,2.99236 -6.79561,8.44255 -7.18251,8.44255 -0.0614,0 -1.13207,-1.02672 -2.37917,-2.28159 z"
       id="path1535" />
    <path
       style="fill:#028049;fill-opacity:1;stroke:none;stroke-width:0.04978;stroke-miterlimit:4;stroke-dasharray:none;stroke-opacity:1"
       d="m 136.2954,227.03561 c -0.29387,-1.77048 -0.50872,-3.24138 -0.47746,-3.26868 0.0313,-0.0273 0.87822,-0.21535 1.88212,-0.41792 5.47432,-1.10461 10.99811,-2.94357 15.96535,-5.31513 l 2.02695,-0.96775 0.73415,1.35482 c 1.03814,1.91581 2.29437,4.45062 2.23299,4.50569 -0.0285,0.0256 -0.72842,0.38481 -1.55536,0.79828 -5.14432,2.57221 -12.78641,5.12098 -18.67772,6.22935 l -1.59671,0.3004 z"
       id="path1537" />
    <path
       style="fill:#028049;fill-opacity:1;stroke:none;stroke-width:0.04978;stroke-miterlimit:4;stroke-dasharray:none;stroke-opacity:1"
       d="m 109.57436,229.81546 c -4.65739,-0.9743 -8.93018,-2.2544 -13.085198,-3.92024 -2.724847,-1.09245 -6.16307,-2.71718 -6.16307,-2.91235 0,-0.0775 0.654798,-1.40026 1.455107,-2.93947 l 1.455108,-2.79856 1.482919,0.74515 c 4.398935,2.21042 10.767644,4.31804 16.421214,5.43433 1.18076,0.23314 2.18096,0.45801 2.22265,0.4997 0.0735,0.0735 -0.73402,5.51432 -0.90512,6.09813 -0.107,0.3651 -0.17287,0.36038 -2.88361,-0.20669 z"
       id="path1539" />
    <path
       style="fill:#028049;fill-opacity:1;stroke:none;stroke-width:0.04978;stroke-miterlimit:4;stroke-dasharray:none;stroke-opacity:1"
       d="m 69.700533,207.59476 c -2.944211,-3.05524 -6.447589,-7.59053 -8.950498,-11.58687 -1.219447,-1.94706 -3.113949,-5.36547 -3.110912,-5.61328 0.001,-0.0852 1.25707,-0.79029 2.791168,-1.56679 l 2.789268,-1.41182 0.983816,1.81013 c 2.345326,4.31518 6.505825,10.04876 9.86288,13.59204 l 1.54143,1.62693 -2.266713,2.28759 -2.266714,2.2876 z"
       id="path1541" />
    <path
       style="fill:#028049;fill-opacity:1;stroke:none;stroke-width:0.04978;stroke-miterlimit:4;stroke-dasharray:none;stroke-opacity:1"
       d="m 49.945731,166.05485 c -0.82831,-6.24123 -0.832123,-13.42858 -0.01074,-20.24387 0.102206,-0.84804 0.156934,-0.95412 0.492242,-0.95412 0.446788,0 5.763255,0.82102 5.844853,0.90262 0.0309,0.0309 -0.06479,1.05385 -0.212652,2.2732 -0.579838,4.78167 -0.499993,12.18525 0.18472,17.12812 0.137321,0.9913 0.208466,1.84358 0.158102,1.89394 -0.115129,0.11513 -5.166567,1.01551 -5.753078,1.02545 -0.430065,0.007 -0.435925,-0.01 -0.703447,-2.02534 z"
       id="path1543" />
    <path
       style="fill:#028049;fill-opacity:1;stroke:none;stroke-width:0.04978;stroke-miterlimit:4;stroke-dasharray:none;stroke-opacity:1"
       d="m 60.083261,123.67889 c -1.527847,-0.76498 -2.777904,-1.45007 -2.777904,-1.52241 0,-0.0723 0.640592,-1.28529 1.423537,-2.69545 1.772988,-3.19333 4.699799,-7.59874 6.734961,-10.13739 1.739434,-2.16977 4.929659,-5.78833 5.092574,-5.77633 0.05861,0.004 1.114607,0.97152 2.346662,2.14935 l 2.2401,2.1415 -1.006649,1.04487 c -3.78779,3.93159 -7.6857,9.39967 -10.518308,14.75534 l -0.757068,1.4314 z"
       id="path1545" />
    <path
       style="fill:#c52c3a;fill-opacity:1;stroke:none;stroke-width:0.04978;stroke-miterlimit:4;stroke-dasharray:none;stroke-opacity:1"
       d="m 112.98925,87.755076 c -0.18997,-0.576202 -0.94761,-5.656952 -0.87268,-5.852211 0.0874,-0.227784 2.58889,-0.606366 6.16929,-0.933679 4.78948,-0.437844 16.84223,0.05452 16.84223,0.688016 0,0.265566 -0.86796,6.034858 -0.91601,6.08865 -0.026,0.02916 -1.08132,-0.08173 -2.34506,-0.246437 -1.81882,-0.23705 -3.42163,-0.298082 -7.69053,-0.292839 -5.11981,0.0063 -7.08261,0.132356 -10.45384,0.671437 -0.4832,0.07727 -0.67817,0.04458 -0.7334,-0.122937 z"
       id="path1547" />
    <path
       style="fill:#c52c3a;fill-opacity:1;stroke:none;stroke-width:0.04978;stroke-miterlimit:4;stroke-dasharray:none;stroke-opacity:1"
       d="m 73.17291,105.29314 -2.302147,-2.18578 1.970281,-1.84101 c 4.802218,-4.487139 9.082654,-7.651843 14.640414,-10.824269 1.242392,-0.709168 1.582386,-0.84028 1.701668,-0.656214 0.319467,0.492973 2.816611,5.331225 2.7694,5.365751 -0.02754,0.02014 -0.759432,0.433265 -1.626434,0.918059 -4.27079,2.388065 -9.471726,6.238863 -12.978107,9.609053 l -1.872927,1.80019 z"
       id="path1549" />
    <path
       style="fill:#c52c3a;fill-opacity:1;stroke:none;stroke-width:0.04978;stroke-miterlimit:4;stroke-dasharray:none;stroke-opacity:1"
       d="m 52.908123,144.74252 c -1.460213,-0.22687 -2.672264,-0.42952 -2.693445,-0.45032 -0.06613,-0.0649 0.44926,-2.8569 0.885665,-4.79783 1.114338,-4.95604 2.794332,-9.9576 4.95441,-14.74991 l 0.950442,-2.10864 2.805014,1.40434 c 1.542758,0.77239 2.805015,1.43082 2.805015,1.46319 0,0.0324 -0.307775,0.72264 -0.683945,1.53396 -2.231606,4.81309 -4.1282,10.79177 -5.139612,16.2017 -0.428651,2.29281 0.03677,2.11262 -3.883544,1.50351 z"
       id="path1551" />
    <path
       style="fill:#c52c3a;fill-opacity:1;stroke:none;stroke-width:0.04978;stroke-miterlimit:4;stroke-dasharray:none;stroke-opacity:1"
       d="m 56.658429,188.53076 c -1.789234,-3.55861 -3.802759,-9.07838 -4.975646,-13.63996 -0.672287,-2.61466 -1.418044,-6.13002 -1.318454,-6.21496 0.09124,-0.0778 6.146071,-1.10699 6.195962,-1.05316 0.0255,0.0275 0.171922,0.68471 0.325379,1.46045 1.093067,5.52554 3.405678,12.48441 5.580934,16.79357 0.264268,0.52351 0.480486,0.98489 0.480486,1.02529 0,0.0739 -5.422206,2.92281 -5.562795,2.92281 -0.04138,0 -0.368019,-0.58232 -0.725866,-1.29404 z"
       id="path1553" />
    <path
       style="fill:#c52c3a;fill-opacity:1;stroke:none;stroke-width:0.04978;stroke-miterlimit:4;stroke-dasharray:none;stroke-opacity:1"
       d="m 87.48906,221.57656 c -5.328949,-3.01262 -11.504039,-7.60865 -14.986762,-11.15442 l -0.981559,-0.99933 2.21257,-2.34153 2.21257,-2.34153 1.175023,1.14511 c 2.572971,2.50745 6.478014,5.60526 9.72059,7.71119 1.372707,0.89152 5.307856,3.18865 5.696734,3.32545 0.121911,0.0429 -0.329748,1.12969 -1.216534,2.92728 -0.775738,1.57249 -1.455043,2.88741 -1.509565,2.92206 -0.05452,0.0346 -1.099903,-0.50278 -2.323067,-1.19428 z"
       id="path1555" />
    <path
       style="fill:#c52c3a;fill-opacity:1;stroke:none;stroke-width:0.04978;stroke-miterlimit:4;stroke-dasharray:none;stroke-opacity:1"
       d="m 119.28146,231.12736 c -1.8424,-0.12284 -6.24947,-0.62309 -6.34882,-0.72067 -0.0238,-0.0234 0.1894,-1.49534 0.47386,-3.27094 l 0.5172,-3.22837 1.51735,0.2054 c 5.56224,0.75296 12.11722,0.74071 17.83954,-0.0333 1.0373,-0.14031 1.91921,-0.2219 1.95979,-0.18132 0.0406,0.0406 0.30628,1.46933 0.59042,3.17498 0.39829,2.39087 0.46999,3.12999 0.31304,3.227 -0.28769,0.1778 -4.30494,0.65032 -7.15528,0.84163 -2.75503,0.18492 -6.80805,0.17892 -9.7071,-0.0144 z"
       id="path1557" />
    <path
       style="fill:#c52c3a;fill-opacity:1;stroke:none;stroke-width:0.04978;stroke-miterlimit:4;stroke-dasharray:none;stroke-opacity:1"
       d="m 158.64334,221.64731 c -0.82378,-1.48233 -2.47177,-4.8019 -2.41039,-4.85527 0.0284,-0.0247 0.76101,-0.43983 1.62801,-0.92252 4.46836,-2.48769 9.22273,-5.98288 13.24697,-9.73857 l 1.88053,-1.75503 2.32062,2.30709 2.32062,2.30709 -1.94924,1.87871 c -4.18923,4.03765 -9.78217,8.12045 -15.35502,11.20903 l -1.10309,0.61135 z"
       id="path1559" />
    <path
       style="fill:#c52c3a;fill-opacity:1;stroke:none;stroke-width:0.04978;stroke-miterlimit:4;stroke-dasharray:none;stroke-opacity:1"
       d="m 188.72456,187.73089 c -1.50584,-0.78363 -2.76791,-1.45334 -2.80458,-1.48825 -0.0367,-0.0349 0.24774,-0.74023 0.63205,-1.56738 2.30935,-4.9704 4.29063,-11.31114 5.24796,-16.79515 0.15534,-0.88981 0.32961,-1.6166 0.38728,-1.61507 0.45197,0.012 6.18827,0.96436 6.26392,1.04 0.24172,0.24173 -1.03691,6.27866 -2.10656,9.94588 -1.27489,4.37086 -4.29212,11.91785 -4.76051,11.90744 -0.0669,-10e-4 -1.35371,-0.64385 -2.85956,-1.42747 z"
       id="path1561" />
    <path
       style="fill:#c52c3a;fill-opacity:1;stroke:none;stroke-width:0.04978;stroke-miterlimit:4;stroke-dasharray:none;stroke-opacity:1"
       d="m 191.7988,143.81978 c -0.0467,-0.20534 -0.20193,-0.97071 -0.34506,-1.70082 -0.98429,-5.02092 -3.20769,-11.67302 -5.29343,-15.83719 -0.9535,-1.90365 -1.13351,-1.61229 1.9948,-3.22878 1.51866,-0.78474 2.81682,-1.4268 2.88479,-1.4268 0.13027,0 1.23119,2.27267 2.25068,4.64614 2.0122,4.6846 3.59244,9.76769 4.64268,14.93393 0.21335,1.0495 0.36585,1.93023 0.33888,1.9572 -0.0685,0.0685 -5.74938,1.02541 -6.1013,1.02775 -0.163,10e-4 -0.3239,-0.15955 -0.37204,-0.37143 z"
       id="path1563" />
    <path
       style="fill:#c52c3a;fill-opacity:1;stroke:none;stroke-width:0.04978;stroke-miterlimit:4;stroke-dasharray:none;stroke-opacity:1"
       d="m 170.44939,105.03135 c -2.6882,-2.44865 -5.08629,-4.31689 -8.19119,-6.381394 -2.53108,-1.682956 -6.59217,-4.070896 -6.92323,-4.070896 -0.0702,0 0.5212,-1.300361 1.31433,-2.889691 l 1.44205,-2.889691 1.08782,0.548985 c 3.58805,1.810755 8.61603,5.111611 12.12239,7.958309 2.23065,1.81099 5.33083,4.597318 5.27445,4.740478 -0.0262,0.0664 -1.01826,1.12665 -2.20468,2.35609 l -2.15713,2.23534 z"
       id="path1565" />
    <path
       style="fill:#c52c3a;fill-opacity:1;stroke:none;stroke-width:0.04978;stroke-miterlimit:4;stroke-dasharray:none;stroke-opacity:1"
       d="m 40.737958,73.61448 -2.209554,-2.214111 2.709659,-2.577984 C 49.389544,61.067023 57.607236,55.002603 66.771061,49.979769 l 1.252003,-0.686243 1.49189,2.855216 1.491889,2.855216 -2.494992,1.423452 c -8.776668,5.007294 -15.622709,10.093158 -23.013723,17.096688 -1.337597,1.267472 -2.458685,2.304494 -2.491305,2.304494 -0.03262,0 -1.05361,-0.99635 -2.268865,-2.214112 z"
       id="path1571" />
    <path
       style="fill:#c52c3a;fill-opacity:1;stroke:none;stroke-width:0.04978;stroke-miterlimit:4;stroke-dasharray:none;stroke-opacity:1"
       d="m 8.2856187,137.95395 c -1.3614896,-0.21927 -2.4995601,-0.42281 -2.5290456,-0.45229 -0.029486,-0.0295 0.1290458,-1.09492 0.352292,-2.36764 1.5114812,-8.61688 3.7389873,-16.41871 7.0513549,-24.69733 1.24253,-3.10546 3.345021,-7.7269 3.515302,-7.7269 0.165901,0 5.451966,2.62805 5.451966,2.71053 0,0.0295 -0.528504,1.20512 -1.174453,2.61247 -3.264784,7.11313 -5.88313,14.81622 -7.609831,22.38787 -0.553098,2.42536 -1.503583,7.37896 -1.503583,7.83616 0,0.20233 -0.886097,0.12682 -3.5540023,-0.30287 z"
       id="path1573" />
    <path
       style="fill:#c52c3a;fill-opacity:1;stroke:none;stroke-width:0.04978;stroke-miterlimit:4;stroke-dasharray:none;stroke-opacity:1"
       d="M 16.716258,209.03654 C 13.229735,202.11322 9.9560421,193.12716 7.8735229,184.76383 7.213922,182.1149 5.9859666,176.20894 6.0760711,176.11884 c 0.026143,-0.0262 1.2029635,-0.23989 2.6151576,-0.475 1.4121943,-0.2351 2.7579643,-0.46602 2.9906003,-0.51315 0.411512,-0.0834 0.42866,-0.0507 0.632771,1.20616 1.441152,8.87406 5.638713,21.64038 9.880068,30.04891 l 0.56037,1.11094 -2.678325,1.36822 c -1.473079,0.75252 -2.696054,1.36854 -2.717722,1.36895 -0.02167,3.3e-4 -0.310899,-0.5384 -0.642733,-1.19733 z"
       id="path1575" />
    <path
       style="fill:#c52c3a;fill-opacity:1;stroke:none;stroke-width:0.04978;stroke-miterlimit:4;stroke-dasharray:none;stroke-opacity:1"
       d="m 66.423246,261.31827 c -8.180611,-4.5473 -15.498648,-9.79549 -22.475523,-16.11849 -1.460214,-1.32337 -2.989199,-2.75166 -3.397746,-3.17399 l -0.742813,-0.76787 2.153246,-2.14769 2.153246,-2.14769 2.2401,2.09046 c 7.178345,6.69884 14.714013,12.18564 23.090123,16.81214 1.491881,0.82403 2.712512,1.55341 2.712512,1.62084 0,0.29499 -2.672381,5.34606 -2.829311,5.34769 -0.09591,9.9e-4 -1.402632,-0.68094 -2.903834,-1.5154 z"
       id="path1577" />
    <path
       style="fill:#c52c3a;fill-opacity:1;stroke:none;stroke-width:0.04978;stroke-miterlimit:4;stroke-dasharray:none;stroke-opacity:1"
       d="m 118.36883,276.27012 c -3.88028,-0.22346 -12.38425,-1.14779 -12.52574,-1.36148 -0.0328,-0.0495 0.93802,-6.16091 0.98876,-6.22465 0.0184,-0.0232 1.12429,0.10559 2.45743,0.28611 5.22603,0.70769 8.26866,0.89455 14.72128,0.90412 6.62114,0.01 8.91897,-0.12406 14.60213,-0.85075 1.8709,-0.23922 3.58465,-0.44133 3.80833,-0.44912 0.3982,-0.0139 0.41618,0.0429 0.86204,2.72372 0.25045,1.50584 0.493,2.93361 0.53901,3.17282 0.0953,0.49541 0.49358,0.39801 -4.00084,0.97832 -6.15904,0.79523 -15.61496,1.15708 -21.4524,0.82091 z"
       id="path1579" />
    <path
       style="fill:#c52c3a;fill-opacity:1;stroke:none;stroke-width:0.04978;stroke-miterlimit:4;stroke-dasharray:none;stroke-opacity:1"
       d="m 178.4367,260.05434 c -0.77574,-1.5277 -1.41044,-2.84338 -1.41044,-2.92374 0,-0.0804 0.41069,-0.37231 0.91264,-0.6488 9.56344,-5.26787 17.97842,-11.4033 24.89897,-18.15403 l 2.24908,-2.19389 2.39706,2.4129 2.39706,2.41291 -2.15714,2.07278 c -7.35843,7.07071 -15.76637,13.25443 -25.0479,18.42176 -1.36453,0.75968 -2.55925,1.38045 -2.65493,1.3795 -0.0957,-10e-4 -0.80866,-1.25169 -1.5844,-2.77939 z"
       id="path1581" />
    <path
       style="fill:#c52c3a;fill-opacity:1;stroke:none;stroke-width:0.04978;stroke-miterlimit:4;stroke-dasharray:none;stroke-opacity:1"
       d="m 229.37823,208.22618 c -1.59711,-0.82318 -2.9611,-1.55308 -3.0311,-1.622 -0.07,-0.0689 0.28488,-0.99909 0.78862,-2.06703 4.39214,-9.31158 7.75398,-20.16213 9.38237,-30.28225 0.17991,-1.11808 0.22462,-1.20985 0.55182,-1.13253 0.19584,0.0463 1.73746,0.28917 3.42583,0.53976 1.68837,0.25059 3.08398,0.46332 3.10136,0.47273 0.0684,0.037 -1.12463,6.27647 -1.604,8.38887 -1.16335,5.12646 -2.7391,10.38158 -4.65213,15.51477 -1.21116,3.24988 -3.47575,8.56009 -4.57908,10.73741 l -0.47985,0.94695 z"
       id="path1583" />
    <path
       style="fill:#c52c3a;fill-opacity:1;stroke:none;stroke-width:0.04978;stroke-miterlimit:4;stroke-dasharray:none;stroke-opacity:1"
       d="m 235.94992,134.36158 c -1.71865,-9.23052 -5.01728,-19.25495 -9.14389,-27.78796 l -1.38141,-2.85646 3.04243,-1.58225 c 1.67334,-0.87024 3.08868,-1.58225 3.14519,-1.58225 0.12001,0 1.87926,3.65486 3.19486,6.63733 2.60979,5.91643 4.92215,12.68138 6.52261,19.08234 0.87312,3.492 2.06486,9.26964 1.93816,9.39634 -0.0428,0.0428 -1.59879,0.33466 -3.45767,0.6485 -1.85889,0.31384 -3.3819,0.57158 -3.38446,0.57275 -0.003,0.001 -0.21668,-1.13658 -0.47582,-2.52834 z"
       id="d13" />
    <path
       style="fill:#c52c3a;fill-opacity:1;stroke:none;stroke-width:0.04978;stroke-miterlimit:4;stroke-dasharray:none;stroke-opacity:1"
       d="m 203.07156,73.654595 c -1.36545,-1.403756 -5.3135,-4.884462 -7.78788,-6.866 -5.39879,-4.323477 -11.11366,-8.111144 -17.22033,-11.413192 -1.34614,-0.727892 -2.44752,-1.352705 -2.44752,-1.388472 0,-0.162257 2.99908,-6.03514 3.08194,-6.03514 0.20157,0 5.26596,2.790096 7.62076,4.198463 6.99374,4.182832 13.94112,9.396087 20.10756,15.088546 l 2.35734,2.176145 -2.41706,2.543089 c -1.32939,1.398701 -2.42928,2.543091 -2.44422,2.543091 -0.0149,0 -0.3977,-0.380938 -0.85059,-0.84653 z"
       id="d18" />
    <path
       style="fill:#c52c3a;fill-opacity:1;stroke:none;stroke-width:0.04978;stroke-miterlimit:4;stroke-dasharray:none;stroke-opacity:1"
       d="m 105.59196,43.210878 c 0,-0.05213 -0.23201,-1.477792 -0.51558,-3.168142 -0.28412,-1.693669 -0.45173,-3.133711 -0.37335,-3.207791 0.19158,-0.181075 4.21101,-0.746326 8.26129,-1.161782 8.31589,-0.853 19.09997,-0.684357 27.12775,0.424229 0.95055,0.131265 1.74423,0.257421 1.76375,0.280347 0.0541,0.06363 -0.92096,6.486334 -0.9962,6.56157 -0.0362,0.0362 -0.9875,-0.05302 -2.11398,-0.198285 -10.02879,-1.293222 -22.1876,-1.171034 -31.24545,0.313997 -1.66539,0.273039 -1.90823,0.292874 -1.90823,0.155857 z"
       id="path1589" />
    <path
       style="fill:#028049;fill-opacity:1;stroke:none;stroke-width:0.04978;stroke-miterlimit:4;stroke-dasharray:none;stroke-opacity:1"
       d="m 70.614158,53.220174 c -1.188575,-2.213514 -2.025334,-3.90721 -2.025334,-4.099506 0,-0.09178 1.362728,-0.834869 3.028284,-1.651308 7.750746,-3.799339 15.683171,-6.71076 24.018851,-8.815589 2.082012,-0.525725 8.332811,-1.838676 8.405881,-1.765614 0.0574,0.05743 1.05232,6.011202 1.05232,6.297429 0,0.176957 -0.421,0.319822 -1.53488,0.52086 -9.850242,1.777804 -20.650823,5.381012 -29.699861,9.908243 -1.253654,0.627203 -2.311257,1.140369 -2.350229,1.140369 -0.03897,0 -0.441736,-0.690698 -0.895032,-1.534884 z"
       id="path1591" />
    <path
       style="fill:#028049;fill-opacity:1;stroke:none;stroke-width:0.04978;stroke-miterlimit:4;stroke-dasharray:none;stroke-opacity:1"
       d="m 174.03946,53.310113 c -1.31502,-0.687722 -5.59188,-2.568877 -8.16327,-3.590579 -6.75087,-2.682353 -15.2432,-5.06501 -22.2821,-6.251592 -1.13892,-0.191994 -2.10213,-0.380444 -2.14047,-0.418779 -0.0706,-0.07064 0.80428,-6.376711 0.91115,-6.56726 0.0625,-0.111369 4.4064,0.61691 7.11656,1.193122 6.38868,1.358307 13.31868,3.457814 19.46361,5.896676 2.81379,1.116767 8.79549,3.78338 9.04379,4.031681 0.1471,0.147098 -2.78371,6.161623 -2.99602,6.14835 -0.068,-0.0042 -0.49693,-0.202978 -0.95325,-0.441619 z"
       id="2" />
    <path
       style="fill:#028049;fill-opacity:1;stroke:none;stroke-width:0.04978;stroke-miterlimit:4;stroke-dasharray:none;stroke-opacity:1"
       d="M 224.24747,101.50423 C 219.74321,92.999779 212.86541,83.596318 206.17466,76.794767 l -1.90609,-1.937658 2.36325,-2.459575 c 1.29978,-1.352767 2.41983,-2.480437 2.489,-2.505935 0.14186,-0.05229 3.69131,3.669959 5.89871,6.185893 4.45777,5.08083 9.07053,11.38515 12.56601,17.174101 1.72051,2.849386 3.78687,6.664198 3.6925,6.816897 -0.0883,0.14279 -5.83753,3.14048 -6.0156,3.13655 -0.0635,-10e-4 -0.52027,-0.76676 -1.01497,-1.70081 z"
       id="d4" />
    <path
       style="fill:#028049;fill-opacity:1;stroke:none;stroke-width:0.04978;stroke-miterlimit:4;stroke-dasharray:none;stroke-opacity:1"
       d="m 240.1639,173.18309 c -1.77963,-0.27797 -3.263,-0.52634 -3.29637,-0.55192 -0.0334,-0.0256 0.0946,-1.33837 0.28433,-2.91732 0.6184,-5.14573 0.76044,-7.72758 0.76044,-13.82242 0,-6.36381 -0.15112,-8.9242 -0.84719,-14.35323 -0.23988,-1.8709 -0.44348,-3.58486 -0.45246,-3.80881 -0.0161,-0.40194 0.027,-0.41439 3.35599,-0.96961 1.85477,-0.30935 3.39609,-0.53681 3.42516,-0.50547 0.0923,0.0995 0.73823,4.94241 0.99246,7.44102 0.86239,8.47566 0.73909,18.71555 -0.32667,27.1301 -0.30241,2.3876 -0.40189,2.91035 -0.54872,2.88346 -0.0612,-0.0112 -1.56733,-0.24782 -3.34697,-0.5258 z"
       id="path1597" />
    <path
       style="fill:#028049;fill-opacity:1;stroke:none;stroke-width:0.04978;stroke-miterlimit:4;stroke-dasharray:none;stroke-opacity:1"
       d="m 207.80992,238.20702 -2.40301,-2.41693 1.25887,-1.28686 c 2.82478,-2.88759 6.66544,-7.49145 9.44098,-11.31707 3.1604,-4.35609 7.03577,-10.61989 9.04241,-14.61535 0.41129,-0.81892 0.78516,-1.48894 0.83084,-1.48894 0.21819,0 6.05316,3.00499 6.05316,3.11736 0,0.1958 -3.11701,5.85934 -4.31167,7.83424 -4.55726,7.53356 -10.05287,14.74406 -16.03893,21.04382 l -1.46964,1.54666 z"
       id="path1599" />
    <path
       style="fill:#028049;fill-opacity:1;stroke:none;stroke-width:0.04978;stroke-miterlimit:4;stroke-dasharray:none;stroke-opacity:1"
       d="m 143.86415,271.93178 c -0.25571,-1.58059 -0.50096,-3.02729 -0.54501,-3.21487 -0.0733,-0.31236 0.0569,-0.36594 1.54765,-0.63677 9.69783,-1.76183 19.67159,-5.04752 29.13189,-9.59703 1.34651,-0.64755 2.47354,-1.14656 2.5045,-1.10892 0.12672,0.15407 2.92912,5.59844 2.92912,5.69055 0,0.14164 -3.30352,1.78056 -6.13954,3.04591 -8.70657,3.88463 -18.81948,6.94721 -28.37876,8.59417 l -0.58492,0.10078 z"
       id="path1601" />
    <path
       style="fill:#028049;fill-opacity:1;stroke:none;stroke-width:0.04978;stroke-miterlimit:4;stroke-dasharray:none;stroke-opacity:1"
       d="m 101.36066,274.12456 c -10.323152,-2.0813 -20.308023,-5.44098 -29.189047,-9.82144 -1.103532,-0.54431 -2.05825,-1.0412 -2.121596,-1.1042 -0.08827,-0.0878 2.340992,-5.17168 2.62428,-5.49202 0.03288,-0.0372 1.199191,0.47753 2.591804,1.1438 9.245125,4.42314 19.865616,7.82479 29.343669,9.39852 l 1.75571,0.29152 -0.21446,1.33718 c -0.11795,0.73545 -0.33822,2.13989 -0.4895,3.12097 -0.27004,1.75137 -0.28297,1.78358 -0.71158,1.77254 -0.2401,-0.006 -1.85528,-0.29727 -3.58928,-0.64687 z"
       id="path1603" />
    <path
       style="fill:#028049;fill-opacity:1;stroke:none;stroke-width:0.04978;stroke-miterlimit:4;stroke-dasharray:none;stroke-opacity:1"
       d="m 37.355846,238.74766 c -5.021156,-5.33597 -8.892217,-10.21017 -12.82706,-16.15103 -2.95642,-4.46362 -7.133334,-11.68996 -6.881498,-11.90544 0.04563,-0.039 1.255064,-0.67507 2.687628,-1.4134 l 2.604661,-1.34241 1.195358,2.18669 c 5.227966,9.56363 10.015078,16.11695 18.423924,25.22146 l 1.198351,1.29748 -2.159638,2.15964 -2.159639,2.15964 z"
       id="path1605" />
    <path
       style="fill:#028049;fill-opacity:1;stroke:none;stroke-width:0.04978;stroke-miterlimit:4;stroke-dasharray:none;stroke-opacity:1"
       d="m 5.9481109,175.34711 c -0.1365975,-0.38586 -0.7348672,-4.83833 -0.986603,-7.34255 -0.6077404,-6.04567 -0.7734812,-13.85468 -0.413814,-19.49716 0.149988,-2.35302 0.2988234,-3.87735 0.935651,-9.58265 0.067483,-0.60458 0.1706823,-0.87115 0.3372472,-0.87115 0.3334746,0 5.7581289,0.84863 5.8221399,0.91081 0.02861,0.0278 -0.09878,1.27162 -0.283087,2.76407 -0.681661,5.51995 -0.764554,7.06789 -0.762872,14.24592 0.0018,7.51377 0.165471,10.1184 0.996014,15.84663 0.211718,1.46021 0.3352,2.70001 0.274404,2.75511 -0.09525,0.0863 -5.3586815,0.99013 -5.7159949,0.98152 -0.071312,-0.002 -0.1627002,-0.0965 -0.2030852,-0.21055 z"
       id="path1607" />
    <path
       style="fill:#028049;fill-opacity:1;stroke:none;stroke-width:0.04978;stroke-miterlimit:4;stroke-dasharray:none;stroke-opacity:1"
       d="m 19.477827,103.53701 -2.684404,-1.32992 1.201457,-2.279132 c 5.271311,-9.99954 11.655562,-19.014653 18.920609,-26.717531 l 1.295586,-1.373666 2.257965,2.203332 2.257962,2.203332 -1.770827,1.908234 C 34.06007,85.582861 27.343965,95.15763 23.06092,103.66391 c -0.333155,0.66166 -0.671651,1.20302 -0.752213,1.20302 -0.08056,0 -1.354457,-0.59847 -2.83088,-1.32992 z"
       id="path1609" />
    <circle
       style="display:inline;fill:none;fill-opacity:1;stroke:#f0f2f4;stroke-width:2.27464;stroke-miterlimit:4;stroke-dasharray:none;stroke-opacity:1"
       id="path1619"
       cx="124.23346"
       cy="155.8869"
       r="155.30203" />
  </g>
  <g
     inkscape:groupmode="layer"
     id="layer6"
     inkscape:label="numbers"
     transform="translate(35.318291,3.6648407)"
     style="display:inline"
     sodipodi:insensitive="true">
    <text
       xml:space="preserve"
       style="font-style:normal;font-weight:normal;font-size:40px;line-height:0;font-family:sans-serif;fill:#f0f2f4;fill-opacity:1;stroke:none"
       x="108.91515"
       y="17.650166"
       id="text1625"><tspan
         sodipodi:role="line"
         id="tspan1623"
         x="108.91515"
         y="17.650166"
         style="font-size:21.3333px;line-height:1.25">20</tspan></text>
    <text
       xml:space="preserve"
       style="font-style:normal;font-weight:normal;font-size:40px;line-height:0;font-family:sans-serif;fill:#f0f2f4;fill-opacity:1;stroke:none"
       x="156.69171"
       y="-28.722363"
       id="text1629"
       transform="rotate(18)"><tspan
         sodipodi:role="line"
         id="tspan1627"
         x="156.69171"
         y="-28.722363"
         style="font-size:21.3333px;line-height:1.25">1</tspan></text>
    <text
       xml:space="preserve"
       style="font-style:normal;font-weight:normal;font-size:40px;line-height:0;font-family:sans-serif;fill:#f0f2f4;fill-opacity:1;stroke:none"
       x="176.94847"
       y="-85.101547"
       id="text1633"
       transform="rotate(36)"><tspan
         sodipodi:role="line"
         id="tspan1631"
         x="176.94847"
         y="-85.101547"
         style="font-size:21.3333px;line-height:1.25">18</tspan></text>
    <text
       xml:space="preserve"
       style="font-style:normal;font-weight:normal;font-size:40px;line-height:0;font-family:sans-serif;fill:#f0f2f4;fill-opacity:1;stroke:none"
       x="188.97981"
       y="-147.46323"
       id="text1637"
       transform="rotate(54)"><tspan
         sodipodi:role="line"
         id="tspan1635"
         x="188.97981"
         y="-147.46323"
         style="font-size:21.3333px;line-height:1.25">4</tspan></text>
    <text
       xml:space="preserve"
       style="font-style:normal;font-weight:normal;font-size:40px;line-height:0;font-family:sans-serif;fill:#f0f2f4;fill-opacity:1;stroke:none"
       x="170.66679"
       y="-208.30373"
       id="text1641"
       transform="rotate(72)"><tspan
         sodipodi:role="line"
         id="tspan1639"
         x="170.66679"
         y="-208.30373"
         style="font-size:21.3333px;line-height:1.25">13</tspan></text>
    <text
       xml:space="preserve"
       style="font-style:normal;font-weight:normal;font-size:40px;line-height:0;font-family:sans-serif;fill:#f0f2f4;fill-opacity:1;stroke:none"
       x="145.20273"
       y="-262.77469"
       id="text1645"
       transform="rotate(90)"><tspan
         sodipodi:role="line"
         id="tspan1643"
         x="145.20273"
         y="-262.77469"
         style="font-size:21.3333px;line-height:1.25">6</tspan></text>
    <text
       xml:space="preserve"
       style="font-style:normal;font-weight:normal;font-size:40px;line-height:0;font-family:sans-serif;fill:#f0f2f4;fill-opacity:1;stroke:none"
       x="61.032562"
       y="48.132542"
       id="text1649"
       transform="rotate(-18)"><tspan
         sodipodi:role="line"
         id="tspan1647"
         x="61.032562"
         y="48.132542"
         style="font-size:21.3333px;line-height:1.25">5</tspan></text>
    <text
       xml:space="preserve"
       style="font-style:normal;font-weight:normal;font-size:40px;line-height:0;font-family:sans-serif;fill:#f0f2f4;fill-opacity:1;stroke:none"
       x="-7.2433009"
       y="60.737019"
       id="text1653"
       transform="rotate(-36)"><tspan
         sodipodi:role="line"
         id="tspan1651"
         x="-7.2433009"
         y="60.737019"
         style="font-size:21.3333px;line-height:1.25">12</tspan></text>
    <text
       xml:space="preserve"
       style="font-style:normal;font-weight:normal;font-size:40px;line-height:0;font-family:sans-serif;fill:#f0f2f4;fill-opacity:1;stroke:none"
       x="-62.170261"
       y="53.805317"
       id="text1657"
       transform="rotate(-54)"><tspan
         sodipodi:role="line"
         id="tspan1655"
         x="-62.170261"
         y="53.805317"
         style="font-size:21.3333px;line-height:1.25">9</tspan></text>
    <text
       xml:space="preserve"
       style="font-style:normal;font-weight:normal;font-size:40px;line-height:0;font-family:sans-serif;fill:#f0f2f4;fill-opacity:1;stroke:none"
       x="-125.67356"
       y="27.876917"
       id="text1661"
       transform="rotate(-72)"><tspan
         sodipodi:role="line"
         id="tspan1659"
         x="-125.67356"
         y="27.876917"
         style="font-size:21.3333px;line-height:1.25">14</tspan></text>
    <text
       xml:space="preserve"
       style="font-style:normal;font-weight:normal;font-size:40px;line-height:0;font-family:sans-serif;fill:#f0f2f4;fill-opacity:1;stroke:none"
       x="-170.83406"
       y="-14.267392"
       id="text1665"
       transform="rotate(-90)"><tspan
         sodipodi:role="line"
         id="tspan1663"
         x="-170.83406"
         y="-14.267392"
         style="font-size:21.3333px;line-height:1.25">11</tspan></text>
    <text
       xml:space="preserve"
       style="font-style:normal;font-weight:normal;font-size:40px;line-height:0;font-family:sans-serif;fill:#f0f2f4;fill-opacity:1;stroke:none"
       x="181.01704"
       y="84.067421"
       id="text1669"
       transform="rotate(72)"><tspan
         sodipodi:role="line"
         id="tspan1667"
         x="181.01704"
         y="84.067421"
         style="font-size:21.3333px;line-height:1.25">8</tspan></text>
    <text
       xml:space="preserve"
       style="font-style:normal;font-weight:normal;font-size:40px;line-height:0;font-family:sans-serif;fill:#f0f2f4;fill-opacity:1;stroke:none"
       x="185.90823"
       y="145.01727"
       id="text1673"
       transform="rotate(54)"><tspan
         sodipodi:role="line"
         id="tspan1671"
         x="185.90823"
         y="145.01727"
         style="font-size:21.3333px;line-height:1.25">16</tspan></text>
    <text
       xml:space="preserve"
       style="font-style:normal;font-weight:normal;font-size:40px;line-height:0;font-family:sans-serif;fill:#f0f2f4;fill-opacity:1;stroke:none"
       x="185.80786"
       y="207.40544"
       id="text1677"
       transform="rotate(36)"><tspan
         sodipodi:role="line"
         id="tspan1675"
         x="185.80786"
         y="207.40544"
         style="font-size:21.3333px;line-height:1.25">7</tspan></text>
    <text
       xml:space="preserve"
       style="font-style:normal;font-weight:normal;font-size:40px;line-height:0;font-family:sans-serif;fill:#f0f2f4;fill-opacity:1;stroke:none"
       x="151.93925"
       y="263.68994"
       id="text1681"
       transform="rotate(18)"><tspan
         sodipodi:role="line"
         id="tspan1679"
         x="151.93925"
         y="263.68994"
         style="font-size:21.3333px;line-height:1.25">19</tspan></text>
    <text
       xml:space="preserve"
       style="font-style:normal;font-weight:normal;font-size:40px;line-height:0;font-family:sans-serif;fill:#f0f2f4;fill-opacity:1;stroke:none"
       x="116.40205"
       y="310.07712"
       id="text1685"><tspan
         sodipodi:role="line"
         id="tspan1683"
         x="116.40205"
         y="310.07712"
         style="font-size:21.3333px;line-height:1.25">3</tspan></text>
    <text
       xml:space="preserve"
       style="font-style:normal;font-weight:normal;font-size:40px;line-height:0;font-family:sans-serif;fill:#f0f2f4;fill-opacity:1;stroke:none"
       x="57.99276"
       y="340.74509"
       id="text1689"
       transform="rotate(-18)"><tspan
         sodipodi:role="line"
         id="tspan1687"
         x="57.99276"
         y="340.74509"
         style="font-size:21.3333px;line-height:1.25">17</tspan></text>
    <text
       xml:space="preserve"
       style="font-style:normal;font-weight:normal;font-size:40px;line-height:0;font-family:sans-serif;fill:#f0f2f4;fill-opacity:1;stroke:none"
       x="1.7121198"
       y="353.21857"
       id="text1693"
       transform="rotate(-36)"><tspan
         sodipodi:role="line"
         id="tspan1691"
         x="1.7121198"
         y="353.21857"
         style="font-size:21.3333px;line-height:1.25">2</tspan></text>
    <text
       xml:space="preserve"
       style="font-style:normal;font-weight:normal;font-size:40px;line-height:0;font-family:sans-serif;fill:#f0f2f4;fill-opacity:1;stroke:none"
       x="-66.87574"
       y="346.09229"
       id="text1697"
       transform="rotate(-54)"><tspan
         sodipodi:role="line"
         id="tspan1695"
         x="-66.87574"
         y="346.09229"
         style="font-size:21.3333px;line-height:1.25">15</tspan></text>
    <text
       xml:space="preserve"
       style="font-style:normal;font-weight:normal;font-size:40px;line-height:0;font-family:sans-serif;fill:#f0f2f4;fill-opacity:1;stroke:none"
       x="-124.30721"
       y="320.24548"
       id="text1701"
       transform="rotate(-72)"><tspan
         sodipodi:role="line"
         id="tspan1699"
         x="-124.30721"
         y="320.24548"
         style="font-size:21.3333px;line-height:1.25">10</tspan></text>
  </g>
  <g
     inkscape:groupmode="layer"
     id="layer3"
     inkscape:label="wires"
     style="display:inline"
     transform="translate(35.318291,3.6648407)"
     sodipodi:insensitive="true">
    <path
       style="display:inline;fill:none;fill-opacity:1;stroke:#c6c4bf;stroke-width:0.3;stroke-miterlimit:4;stroke-dasharray:none;stroke-opacity:1"
       d="M 253.7504,175.47051 136.05001,157.43186"
       id="path1039" />
    <path
       style="display:inline;fill:none;fill-opacity:1;stroke:#c6c4bf;stroke-width:0.3;stroke-miterlimit:4;stroke-dasharray:none;stroke-opacity:1"
       d="M 184.65865,272.62076 129.89202,166.44763"
       id="path1045" />
    <path
       style="display:inline;fill:none;fill-opacity:1;stroke:#c6c4bf;stroke-width:0.3;stroke-miterlimit:4;stroke-dasharray:none;stroke-opacity:1"
       d="M 146.00649,286.04266 126.08314,167.75587"
       id="path1047" />
    <path
       style="display:inline;fill:none;fill-opacity:1;stroke:#c6c4bf;stroke-width:0.3;stroke-miterlimit:4;stroke-dasharray:none;stroke-opacity:1"
       d="M 103.99483,284.94705 122.58048,167.89468"
       id="path1049" />
    <path
       style="display:inline;fill:none;fill-opacity:1;stroke:#c6c4bf;stroke-width:0.3;stroke-miterlimit:4;stroke-dasharray:none;stroke-opacity:1"
       d="M 64.6288,272.96229 118.75314,166.40466"
       id="path1051" />
    <path
       style="display:inline;fill:none;fill-opacity:1;stroke:#c6c4bf;stroke-width:0.3;stroke-miterlimit:4;stroke-dasharray:none;stroke-opacity:1"
       d="M 31.977176,248.82529 115.79601,164.33481"
       id="path1053" />
    <path
       style="display:inline;fill:none;fill-opacity:1;stroke:#c6c4bf;stroke-width:0.3;stroke-miterlimit:4;stroke-dasharray:none;stroke-opacity:1"
       d="M 7.5279437,215.53908 113.58032,161.43983"
       id="path1055" />
    <path
       style="display:inline;fill:none;fill-opacity:1;stroke:#c6c4bf;stroke-width:0.300774;stroke-miterlimit:4;stroke-dasharray:none;stroke-opacity:1"
       d="M -4.2995043,177.59218 112.2889,157.96173"
       id="path1057" />
    <path
       style="display:inline;fill:none;fill-opacity:1;stroke:#c6c4bf;stroke-width:0.300412;stroke-miterlimit:4;stroke-dasharray:none;stroke-opacity:1"
       d="M -4.7612235,136.19287 112.37272,154.0036"
       id="path1059" />
    <path
       style="display:inline;fill:none;fill-opacity:1;stroke:#c6c4bf;stroke-width:0.300208;stroke-miterlimit:4;stroke-dasharray:none;stroke-opacity:1"
       d="M 7.6805914,97.919964 113.42816,150.4292"
       id="path1061" />
    <path
       style="display:inline;fill:none;fill-opacity:1;stroke:#c6c4bf;stroke-width:0.301087;stroke-miterlimit:4;stroke-dasharray:none;stroke-opacity:1"
       d="m 31.66239,65.127777 84.10909,82.078273"
       id="path1063" />
    <path
       style="display:inline;fill:none;fill-opacity:1;stroke:#c6c4bf;stroke-width:0.3;stroke-miterlimit:4;stroke-dasharray:none;stroke-opacity:1"
       d="M 63.9667,41.034549 118.58049,145.40949"
       id="path1065" />
    <path
       style="display:inline;fill:none;fill-opacity:1;stroke:#c6c4bf;stroke-width:0.3;stroke-miterlimit:4;stroke-dasharray:none;stroke-opacity:1"
       d="M 102.78965,27.716364 122.05288,143.98611"
       id="path1067" />
    <path
       style="display:inline;fill:none;fill-opacity:1;stroke:#c6c4bf;stroke-width:0.301031;stroke-miterlimit:4;stroke-dasharray:none;stroke-opacity:1"
       d="M 143.4762,27.283775 126.0979,144.03593"
       id="path1069" />
    <path
       style="display:inline;fill:none;fill-opacity:1;stroke:#c6c4bf;stroke-width:0.3;stroke-miterlimit:4;stroke-dasharray:none;stroke-opacity:1"
       d="M 182.60715,39.39862 129.54436,145.25689"
       id="path1071" />
    <path
       style="display:inline;fill:none;fill-opacity:1;stroke:#c6c4bf;stroke-width:0.3;stroke-miterlimit:4;stroke-dasharray:none;stroke-opacity:1"
       d="M 215.8011,62.719589 132.55401,147.21734"
       id="path1073" />
    <path
       style="display:inline;fill:none;fill-opacity:1;stroke:#c6c4bf;stroke-width:0.3;stroke-miterlimit:4;stroke-dasharray:none;stroke-opacity:1"
       d="M 134.85939,150.45239 239.85455,95.951398"
       id="path1035" />
    <path
       style="display:inline;fill:none;fill-opacity:1;stroke:#c6c4bf;stroke-width:0.3;stroke-miterlimit:4;stroke-dasharray:none;stroke-opacity:1"
       d="M 252.48101,134.44428 135.9795,153.79858"
       id="path1037" />
    <path
       style="display:inline;fill:none;fill-opacity:1;stroke:#c6c4bf;stroke-width:0.3;stroke-miterlimit:4;stroke-dasharray:none;stroke-opacity:1"
       d="M 242.00467,214.8442 135.03361,160.91852"
       id="path1041" />
    <path
       style="display:inline;fill:none;fill-opacity:1;stroke:#c6c4bf;stroke-width:0.3;stroke-miterlimit:4;stroke-dasharray:none;stroke-opacity:1"
       d="M 217.80543,248.4867 132.87651,164.33236"
       id="path1043" />
    <ellipse
       style="fill:none;fill-opacity:1;stroke:#c6c4bf;stroke-width:0.3;stroke-miterlimit:4;stroke-dasharray:none;stroke-opacity:1"
       id="path1166"
       cx="124.23325"
       cy="155.88751"
       rx="68.391808"
       ry="68.580643" />
    <ellipse
       style="fill:none;fill-opacity:1;stroke:#c6c4bf;stroke-width:0.330404;stroke-miterlimit:4;stroke-dasharray:none;stroke-opacity:1"
       id="circle1170"
       cx="124.33698"
       cy="156.01047"
       rx="75.323128"
       ry="75.531105" />
    <ellipse
       style="fill:none;fill-opacity:1;stroke:#c6c4bf;stroke-width:0.3;stroke-miterlimit:4;stroke-dasharray:none;stroke-opacity:1"
       id="circle1172"
       cx="124.23312"
       cy="155.88737"
       rx="113.54649"
       ry="113.85999" />
    <ellipse
       style="fill:none;fill-opacity:1;stroke:#c6c4bf;stroke-width:0.318581;stroke-miterlimit:4;stroke-dasharray:none;stroke-opacity:1"
       id="circle1194"
       cx="124.66512"
       cy="155.75415"
       rx="120.57903"
       ry="120.91193" />
    <ellipse
       style="fill:none;fill-opacity:1;stroke:#c6c4bf;stroke-width:0.3;stroke-miterlimit:4;stroke-dasharray:none;stroke-opacity:1"
       id="ellipse1285"
       cx="124.23344"
       cy="155.8877"
       rx="11.995732"
       ry="12.028854" />
  </g>
  <g
     inkscape:groupmode="layer"
     id="layer2"
     inkscape:label="bull"
     style="display:inline"
     transform="translate(35.318291,3.6648407)"
     sodipodi:insensitive="true">
    <path
       id="path903"
       style="display:inline;fill:#e5e9dd;fill-opacity:1;stroke-width:1.92307"
       d="m 124.27148,150.14258 a 5.7443943,5.7443943 0 0 0 -0.60351,0.0293 5.7443943,5.7443943 0 0 0 -5.15235,6.26757 l 0.006,0.0527 a 5.7443943,5.7443943 0 0 0 6.30469,5.10937 5.7443943,5.7443943 0 0 0 5.12305,-6.29297 5.7443943,5.7443943 0 0 0 -5.67774,-5.16601 z m -0.11718,1.39062 a 4.3544183,4.3544183 0 0 1 4.41211,3.91602 4.3544183,4.3544183 0 0 1 -3.88477,4.76953 4.3544183,4.3544183 0 0 1 -4.7793,-3.87305 l -0.004,-0.0391 a 4.3544183,4.3544183 0 0 1 3.90625,-4.75195 4.3544183,4.3544183 0 0 1 0.34961,-0.0215 z" />
    <circle
       style="display:inline;fill:#bc1731;fill-opacity:1;stroke-width:0.3;stroke-miterlimit:4;stroke-dasharray:none"
       id="path901"
       cx="124.23388"
       cy="155.88733"
       r="4.3544183" />
    <path
       id="path911"
       style="display:inline;fill:#02864a;fill-opacity:1;stroke-width:1.46872"
       d="m 124.24414,144.44336 a 11.443973,11.443973 0 0 0 -1.13672,0.0566 11.443973,11.443973 0 0 0 -10.26562,12.48633 l 0.0117,0.10742 a 11.443973,11.443973 0 0 0 12.55859,10.17773 11.443973,11.443973 0 0 0 10.20703,-12.5371 11.443973,11.443973 0 0 0 -11.375,-10.29102 z m 0.0273,5.69922 a 5.7443943,5.7443943 0 0 1 5.67774,5.16601 5.7443943,5.7443943 0 0 1 -5.12305,6.29297 5.7443943,5.7443943 0 0 1 -6.30469,-5.10937 l -0.006,-0.0527 a 5.7443943,5.7443943 0 0 1 5.15235,-6.26757 5.7443943,5.7443943 0 0 1 0.60351,-0.0293 z m -3.10351,2.65039 a 4.3544183,4.3544183 0 0 0 0,0.002 4.3544183,4.3544183 0 0 1 0.002,-0.002 4.3544183,4.3544183 0 0 1 -0.002,0 z m -1.14063,4.22851 a 4.3544183,4.3544183 0 0 0 0.0488,0.16797 4.3544183,4.3544183 0 0 1 0.002,0.002 4.3544183,4.3544183 0 0 1 -0.0508,-0.16993 z m 0.20508,0.58204 a 4.3544183,4.3544183 0 0 0 0.10742,0.23632 4.3544183,4.3544183 0 0 1 -0.0742,-0.1582 4.3544183,4.3544183 0 0 1 -0.0332,-0.0781 z m 0.3711,0.6914 a 4.3544183,4.3544183 0 0 0 0.002,0.002 4.3544183,4.3544183 0 0 1 0,-0.002 4.3544183,4.3544183 0 0 1 -0.002,0 z" />
    <path
       id="path964"
       style="display:inline;fill:#e5e9dd;fill-opacity:1;stroke:none;stroke-width:2.18421;stroke-miterlimit:4;stroke-dasharray:none;stroke-opacity:1"
       d="m 124.21968,143.43797 a 12.483558,12.449439 0 0 0 -1.1875,0.0586 12.483558,12.449439 0 0 0 -11.22461,13.58789 v 0.002 a 12.483558,12.449439 0 0 0 13.625,11.19336 12.483558,12.449439 0 0 0 11.22657,-13.58984 12.483558,12.449439 0 0 0 -12.43946,-11.25196 z m 0.0234,1.00586 a 11.443973,11.443973 0 0 1 11.375,10.29102 11.443973,11.443973 0 0 1 -10.20703,12.53711 11.443973,11.443973 0 0 1 -12.55859,-10.17774 l -0.0117,-0.10742 a 11.443973,11.443973 0 0 1 10.26562,-12.48633 11.443973,11.443973 0 0 1 1.13672,-0.0566 z m -0.0898,7.08985 a 4.3544183,4.3544183 0 0 0 -0.17383,0.008 4.3544183,4.3544183 0 0 1 0.34766,-0.006 4.3544183,4.3544183 0 0 0 -0.17383,-0.002 z m 0.87304,0.0742 a 4.3544183,4.3544183 0 0 1 0.17188,0.0351 4.3544183,4.3544183 0 0 0 -0.17188,-0.0351 z m 0.8418,0.24609 a 4.3544183,4.3544183 0 0 1 0.26172,0.11719 4.3544183,4.3544183 0 0 0 -0.26172,-0.11719 z m -4.70117,0.94141 a 4.3544183,4.3544183 0 0 0 -0.1211,0.125 4.3544183,4.3544183 0 0 1 0.12305,-0.125 4.3544183,4.3544183 0 0 1 -0.002,0 z m 8.68359,1.90234 a 5.7443943,5.7443943 0 0 1 0.0391,0.19726 5.7443943,5.7443943 0 0 0 -0.0391,-0.19726 z m -1.30469,0.5918 a 4.3544183,4.3544183 0 0 1 0.0176,0.16015 4.3544183,4.3544183 0 0 1 0.0156,0.17383 4.3544183,4.3544183 0 0 0 -0.0137,-0.17383 4.3544183,4.3544183 0 0 0 -0.0195,-0.16015 z m -8.64257,1.07617 a 4.3544183,4.3544183 0 0 0 0.0234,0.17383 4.3544183,4.3544183 0 0 1 -0.0234,-0.17383 z m 0.082,0.48828 a 4.3544183,4.3544183 0 0 0 0.0566,0.21875 4.3544183,4.3544183 0 0 1 -0.0566,-0.21875 z m 0.0898,0.33789 a 4.3544183,4.3544183 0 0 0 0.18946,0.49023 4.3544183,4.3544183 0 0 1 -0.1875,-0.49023 4.3544183,4.3544183 0 0 1 -0.002,0 z m 0.18946,0.49219 a 4.3544183,4.3544183 0 0 0 0.30273,0.55468 4.3544183,4.3544183 0 0 1 -0.30273,-0.55468 z" />
  </g>
</svg>
